<?xml version="1.0" encoding="UTF-8" standalone="no"?>
<!-- Created with Inkscape (http://www.inkscape.org/) -->

<svg
   xmlns:a="http://ns.adobe.com/AdobeSVGViewerExtensions/3.0/"
   xmlns:dc="http://purl.org/dc/elements/1.1/"
   xmlns:cc="http://creativecommons.org/ns#"
   xmlns:rdf="http://www.w3.org/1999/02/22-rdf-syntax-ns#"
   xmlns:svg="http://www.w3.org/2000/svg"
   xmlns="http://www.w3.org/2000/svg"
   xmlns:xlink="http://www.w3.org/1999/xlink"
   version="1.1"
   width="48pt"
   height="48pt"
   viewBox="0 0 48 48"
   id="svg548"
   xml:space="preserve"
   style="overflow:visible"><metadata
   id="metadata43"><rdf:RDF><cc:Work
       rdf:about=""><dc:format>image/svg+xml</dc:format><dc:type
         rdf:resource="http://purl.org/dc/dcmitype/StillImage" /><dc:title></dc:title></cc:Work></rdf:RDF></metadata>
  <defs
   id="defs630"><linearGradient
     id="linearGradient3746"><stop
       id="stop3748"
       style="stop-color:#ffffff;stop-opacity:0"
       offset="0" /><stop
       id="stop3750"
       style="stop-color:#ffffff;stop-opacity:0.49019608"
       offset="1" /></linearGradient><linearGradient
     x1="24.1597"
     y1="18.867701"
     x2="24.1597"
     y2="20.534201"
     id="XMLID_9_"
     gradientUnits="userSpaceOnUse">
      <stop
   id="stop589"
   style="stop-color:#ffffff;stop-opacity:1"
   offset="0" />
      <stop
   id="stop590"
   style="stop-color:#e9e9ef;stop-opacity:1"
   offset="1" />
      <a:midPointStop
   offset="0"
   style="stop-color:#FFFFFF"
   id="midPointStop591" />
      <a:midPointStop
   offset="0.5"
   style="stop-color:#FFFFFF"
   id="midPointStop592" />
      <a:midPointStop
   offset="1"
   style="stop-color:#E9E9EF"
   id="midPointStop593" />
    </linearGradient><linearGradient
     x1="311.22269"
     y1="17.458"
     x2="311.22269"
     y2="23.226101"
     id="XMLID_10_"
     gradientUnits="userSpaceOnUse"
     gradientTransform="matrix(1,0,0.2679,1,-292.7053,0)">
      <stop
   id="stop596"
   style="stop-color:#cecedb;stop-opacity:1"
   offset="0" />
      <stop
   id="stop597"
   style="stop-color:#828282;stop-opacity:1"
   offset="0.29769999" />
      <stop
   id="stop598"
   style="stop-color:#000000;stop-opacity:1"
   offset="1" />
      <a:midPointStop
   offset="0"
   style="stop-color:#CECEDB"
   id="midPointStop599" />
      <a:midPointStop
   offset="0.5"
   style="stop-color:#CECEDB"
   id="midPointStop600" />
      <a:midPointStop
   offset="0.2977"
   style="stop-color:#828282"
   id="midPointStop601" />
      <a:midPointStop
   offset="0.5"
   style="stop-color:#828282"
   id="midPointStop602" />
      <a:midPointStop
   offset="1"
   style="stop-color:#000000"
   id="midPointStop603" />
    </linearGradient><linearGradient
     x1="22.6689"
     y1="9.3192997"
     x2="23.184099"
     y2="11.2419"
     id="XMLID_11_"
     gradientUnits="userSpaceOnUse">
      <stop
   id="stop607"
   style="stop-color:#ffffff;stop-opacity:1"
   offset="0" />
      <stop
   id="stop608"
   style="stop-color:#cecedb;stop-opacity:1"
   offset="1" />
      <a:midPointStop
   offset="0"
   style="stop-color:#FFFFFF"
   id="midPointStop609" />
      <a:midPointStop
   offset="0.5"
   style="stop-color:#FFFFFF"
   id="midPointStop610" />
      <a:midPointStop
   offset="1"
   style="stop-color:#CECEDB"
   id="midPointStop611" />
    </linearGradient><linearGradient
     x1="22.366699"
     y1="7.8495998"
     x2="24.2355"
     y2="14.8243"
     id="XMLID_12_"
     gradientUnits="userSpaceOnUse">
      <stop
   id="stop614"
   style="stop-color:#cecedb;stop-opacity:1"
   offset="0" />
      <stop
   id="stop615"
   style="stop-color:#cbcbd7;stop-opacity:1"
   offset="0.0054" />
      <stop
   id="stop616"
   style="stop-color:#a5a5ad;stop-opacity:1"
   offset="0.0705" />
      <stop
   id="stop617"
   style="stop-color:#87878c;stop-opacity:1"
   offset="0.1338" />
      <stop
   id="stop618"
   style="stop-color:#727274;stop-opacity:1"
   offset="0.19410001" />
      <stop
   id="stop619"
   style="stop-color:#656566;stop-opacity:1"
   offset="0.2502" />
      <stop
   id="stop620"
   style="stop-color:#616161;stop-opacity:1"
   offset="0.29769999" />
      <stop
   id="stop621"
   style="stop-color:#000000;stop-opacity:1"
   offset="1" />
      <a:midPointStop
   offset="0"
   style="stop-color:#CECEDB"
   id="midPointStop622" />
      <a:midPointStop
   offset="0.3269"
   style="stop-color:#CECEDB"
   id="midPointStop623" />
      <a:midPointStop
   offset="0.2977"
   style="stop-color:#616161"
   id="midPointStop624" />
      <a:midPointStop
   offset="0.5"
   style="stop-color:#616161"
   id="midPointStop625" />
      <a:midPointStop
   offset="1"
   style="stop-color:#000000"
   id="midPointStop626" />
    </linearGradient><linearGradient
     x1="22.366699"
     y1="7.8495998"
     x2="24.2355"
     y2="14.8243"
     id="linearGradient2914"
     xlink:href="#XMLID_12_"
     gradientUnits="userSpaceOnUse" /><linearGradient
     x1="311.22269"
     y1="17.458"
     x2="311.22269"
     y2="23.226101"
     id="linearGradient2919"
     xlink:href="#XMLID_10_"
     gradientUnits="userSpaceOnUse"
     gradientTransform="matrix(1,0,0.2679,1,-292.7053,0)" /><linearGradient
     x1="24.1597"
     y1="18.867701"
     x2="24.1597"
     y2="20.534201"
     id="linearGradient2922"
     xlink:href="#XMLID_9_"
     gradientUnits="userSpaceOnUse" /><linearGradient
     x1="7.1020002"
     y1="43.700001"
     x2="7.1020002"
     y2="22.700001"
     id="linearGradient3755"
     xlink:href="#linearGradient3746"
     gradientUnits="userSpaceOnUse"
     gradientTransform="scale(1.25,1.25)" /></defs>
  
  
  <path
   d="M 44.5,17.527 H 44.244 10.604 L 43.339,8.756 C 43.527,8.705 43.685,8.585 43.782,8.415 43.879,8.246 43.905,8.05 43.854,7.861 L 42.774,3.829 C 42.726,3.644 42.6,3.481 42.433,3.385 42.264,3.288 42.067,3.262 41.879,3.313 L 41.633,3.38 c 0,0 0.041,0.021 0.051,0.027 -0.27,0.034 -0.743,0.159 -1.664,0.406 L 4.088,13.439 C 3.9,13.489 3.743,13.61 3.645,13.778 3.58,13.892 3.546,14.016 3.546,14.143 c 0,0.064 0.008,0.128 0.025,0.19 l 1.073,4.002 v 4.095 c 0,0.402 0.327,0.729 0.729,0.729 h 1.524 v 21.457 c 0,0.366 0.273,0.678 0.636,0.725 l 0.22,0.027 c 0.238,0.029 0.863,0.096 1.593,0.096 h 32.758 c 1.35,0 2.447,-1.114 2.447,-2.484 V 23.155 c 0.378,-0.027 0.68,-0.34 0.68,-0.724 v -4.174 c 0,-0.402 -0.328,-0.73 -0.731,-0.73 z"
   id="path551"
   style="opacity:0.2" /><path
   d="M 44.112,17.139 H 43.855 10.215 L 42.95,8.367 C 43.138,8.317 43.296,8.196 43.393,8.026 43.49,7.858 43.516,7.661 43.466,7.472 L 42.386,3.44 C 42.337,3.255 42.213,3.093 42.045,2.996 41.876,2.899 41.68,2.873 41.491,2.924 L 41.243,2.99 c 0,0 0.042,0.021 0.052,0.026 -0.271,0.035 -0.743,0.159 -1.664,0.406 L 3.699,13.051 c -0.188,0.05 -0.345,0.171 -0.443,0.339 -0.065,0.114 -0.098,0.239 -0.098,0.365 0,0.063 0.008,0.127 0.025,0.19 l 1.073,4.003 v 4.093 c 0,0.403 0.328,0.73 0.73,0.73 H 6.51 v 21.457 c 0,0.366 0.273,0.677 0.636,0.725 l 0.219,0.027 c 0.238,0.029 0.863,0.096 1.593,0.096 h 32.757 c 1.351,0 2.448,-1.115 2.448,-2.484 V 22.767 c 0.378,-0.027 0.679,-0.34 0.679,-0.725 v -4.173 c 0,-0.403 -0.327,-0.73 -0.73,-0.73 z"
   id="path552"
   style="opacity:0.2" /><path
   d="m 43.723,16.75 -0.256,0 -33.641,0 32.735,-8.771 C 42.749,7.928 42.907,7.807 43.004,7.638 43.101,7.469 43.127,7.273 43.076,7.084 L 41.996,3.052 C 41.947,2.866 41.822,2.704 41.655,2.608 41.486,2.511 41.29,2.485 41.101,2.536 l -0.248,0.067 c 0,0 0.042,0.021 0.052,0.026 -0.271,0.034 -0.743,0.159 -1.664,0.406 l -35.93,9.627 c -0.188,0.05 -0.345,0.171 -0.443,0.339 -0.065,0.114 -0.098,0.239 -0.098,0.365 0,0.063 0.008,0.128 0.025,0.19 l 1.073,4.002 0,4.094 c 0,0.402 0.328,0.73 0.73,0.73 l 1.524,0 0,21.673727 c 0,0.411337 0.2276836,0.631473 0.636,0.631473 l 34.569,-2e-4 c 1.351,0 2.448,-1.114 2.448,-2.484 l 0,-19.826 c 0.378,-0.027 0.679,-0.339 0.679,-0.725 l 0,-4.173 C 44.453,17.077 44.125,16.75 43.723,16.75 z"
   id="path553" /><path
   d="m 8.875,28.375 0,26.25 42.78125,0 c 1.0125,0 1.84375,-0.84125 1.84375,-1.875 l 0,-24.375 -44.625,0 z"
   transform="scale(0.8,0.8)"
   id="path3790"
   style="fill:#ed1c24;fill-opacity:1" /><path
   d="M 43.467,17.139 H 4.597 c -0.188,0 -0.341,0.153 -0.341,0.341 v 4.173 c 0,0.188 0.153,0.341 0.341,0.341 h 39.125 c 0.189,0 0.342,-0.153 0.342,-0.341 V 17.48 c 0,-0.188 -0.152,-0.341 -0.342,-0.341 h -0.255 z"
   id="path587" /><rect
   width="38.612999"
   height="3.661"
   x="4.8540001"
   y="17.735001"
   id="rect594"
   style="fill:url(#linearGradient2922)" /><path
   d="m 7.762,21.396 h 3.662 L 9.797,17.735 H 6.136 l 1.626,3.661 m 17.013,-3.661 h -3.66 l 1.626,3.661 h 3.661 l -1.627,-3.661 m -7.489,0 h -3.662 l 1.627,3.661 h 3.662 l -1.627,-3.661 m 22.47,0 h -3.663 l 1.628,3.661 h 3.661 l -1.626,-3.661 m -7.49,0 h -3.662 l 1.627,3.661 h 3.664 l -1.629,-3.661 z"
   id="path604"
   style="fill:url(#linearGradient2919)" /><path
   d="m 41.203,2.911 -0.248,0.067 c 0.001,0 0.001,0 0.001,0 L 3.411,13.038 c -0.088,0.023 -0.162,0.081 -0.208,0.159 -0.046,0.078 -0.058,0.171 -0.034,0.258 l 1.081,4.033 c 0.049,0.182 0.236,0.29 0.418,0.241 L 42.461,7.603 c 0.182,-0.049 0.29,-0.236 0.24,-0.418 L 41.622,3.153 C 41.599,3.066 41.541,2.991 41.463,2.945 41.384,2.9 41.291,2.888 41.203,2.911 z"
   id="path605" /><path
   d="M 41.111,3.555 3.814,13.548 4.761,17.085 42.06,7.091 z"
   id="polygon612"
   style="fill:url(#XMLID_11_)" /><path
   d="M 7.57,16.333 11.108,15.386 9.537,12.015 6,12.963 l 1.57,3.37 m 16.434,-8.194 -3.537,0.948 1.571,3.37 3.538,-0.948 -1.572,-3.37 m -7.234,1.938 -3.537,0.948 1.572,3.37 3.536,-0.949 -1.571,-3.369 m 21.703,-5.815 -3.535,0.947 1.571,3.37 3.537,-0.947 -1.573,-3.37 M 31.239,6.201 27.701,7.147 29.273,10.518 32.81,9.57 31.239,6.201 z"
   id="path627"
   style="fill:url(#linearGradient2914)" />
<rect
   width="35.700001"
   height="10.377049"
   x="7.0999999"
   y="22.699997"
   id="rect3212"
   style="fill:#ffffff" /><rect
   width="35.700001"
   height="7.000001"
   x="7.0999999"
   y="29.700001"
   id="rect4183"
   style="fill:#005da4" /><path
   d="m 15.059515,26.736784 c -0.06468,0.02852 -0.128874,0.05813 -0.192593,0.0888 l 0.200714,3.175991 c 0.05467,0.865844 0.422893,1.685259 1.039972,2.302314 0.421974,0.421949 0.938551,0.727588 1.499918,0.896106 l 3.4e-5,0 c 0.561367,-0.168541 1.077969,-0.474157 1.499918,-0.896106 0.617055,-0.617055 0.985297,-1.436468 1.039948,-2.302314 l 0.200738,-3.175991 c -0.06374,-0.03068 -0.127887,-0.06029 -0.192617,-0.0888 l 3.5e-5,2.4e-5 -0.205451,3.251186 c -0.05141,0.81835 -0.399326,1.592853 -0.982495,2.176022 -0.384315,0.384364 -0.851777,0.666484 -1.360065,0.828936 l -6.9e-5,0 C 17.09919,32.8305 16.631776,32.54838 16.24746,32.164016 15.664269,31.580847 15.316354,30.806344 15.264966,29.987994 l -0.205475,-3.25121 3.5e-5,0"
   id="path13"
   style="fill:#ed1c24" /><path
   d="M 20.155608,26.736808 C 19.360317,26.386163 18.493529,26.2 17.60755,26.2 c -0.886004,0 -1.752793,0.186163 -2.548083,0.536808 l 0.205499,3.251186 c 0.05139,0.81835 0.399303,1.592853 0.982494,2.176022 0.38434,0.384364 0.851754,0.666484 1.360042,0.828936 l 6.9e-5,0 c 0.508288,-0.162452 0.97575,-0.444572 1.360016,-0.828936 0.583218,-0.583169 0.931131,-1.357672 0.982494,-2.176022"
   id="path15"
   style="fill:#005da4" /><use
   transform="translate(0.71941905,0.95921728)"
   id="use2825"
   x="0"
   y="0"
   width="1200"
   height="600"
   xlink:href="#polyline19" /><polyline
   style="fill:#ffdd00;fill-opacity:1"
   id="polyline19"
   points="90,23.232 94.669,16.854 86.811,17.709 83.622,10.476 80.433,17.709 72.575,16.854 77.244,23.232    72.575,29.61 80.433,28.755 83.622,35.988 86.811,28.755 94.669,29.61  "
   transform="matrix(0.02417078,0,0,0.02417078,14.866922,26.2)" /><use
   transform="translate(1.438802,-4.4617918e-7)"
   id="use2827"
   x="0"
   y="0"
   width="1200"
   height="600"
   xlink:href="#polyline19" /><path
   d="M 19.663032,30.461403 18.635267,29.091065 18.22417,29.63921 17.607526,28.405921 16.99088,29.63921 16.579785,29.091065 15.552044,30.461403 c 0,0.181716 0.0722,0.355963 0.20069,0.484454 0.128487,0.128447 0.302737,0.200691 0.484478,0.200691 0.121335,0 0.239363,-0.0322 0.342621,-0.09182 6.75e-4,-4.35e-4 -8.24e-4,4.83e-4 -1.75e-4,1.04e-4 0.05145,-0.02973 0.106977,-0.05288 0.165352,-0.06851 0.175527,-0.04701 0.362537,-0.02243 0.519914,0.0684 0.105068,0.06067 0.223386,0.09183 0.342643,0.09183 5.08e-4,0 -6.26e-4,0 -1.04e-4,0 0.11928,0 0.237573,-0.03116 0.342669,-0.09183 0.157352,-0.09083 0.344385,-0.115463 0.519914,-0.0684 0.05835,0.01561 0.113862,0.03878 0.165327,0.06851 7e-4,3.86e-4 -7.97e-4,-5.07e-4 -1.4e-4,-1.04e-4 0.103281,0.05963 0.22126,0.09182 0.342597,0.09182 0.181763,0 0.356011,-0.07222 0.484502,-0.200691 0.128487,-0.128487 0.20069,-0.302738 0.20069,-0.484454"
   id="path23"
   style="fill:#ffffff" /><path
   d="m 15.795515,31.205404 c 0.04716,0.09371 0.099,0.185148 0.155345,0.273951 0,0 -2.4e-5,3.4e-5 0,1.05e-4 0.144639,0.06652 0.308637,0.08088 0.463693,0.03932 0.05839,-0.01561 0.113889,-0.03879 0.165352,-0.06851 6.75e-4,-3.85e-4 -8.22e-4,4.83e-4 -1.4e-4,1.04e-4 0.103254,-0.05967 0.221283,-0.09183 0.34262,-0.09183 2.46e-4,0 -3.14e-4,0 -6.9e-5,0 0.119253,-3.5e-5 0.237574,0.0311 0.342645,0.09183 0.157376,0.09083 0.344385,0.115411 0.519938,0.0684 0.05835,-0.01561 0.113862,-0.03879 0.165328,-0.06851 6.99e-4,-3.85e-4 -8e-4,4.83e-4 -1.41e-4,1.05e-4 0.103241,-0.05967 0.221259,-0.09183 0.342645,-0.09183 2.44e-4,0 -3.49e-4,0 -1.05e-4,0 0.119253,-3.4e-5 0.237599,0.03111 0.342645,0.09183 0.1574,0.09083 0.344385,0.11541 0.519914,0.0684 0.03768,-0.01001 0.07411,-0.02332 0.109058,-0.03938 l 0,0 c 0.05636,-0.08886 0.108218,-0.18029 0.155369,-0.273951 0,-3.5e-5 0,0 0,0 -0.03423,0.01308 -0.06741,0.02878 -0.09922,0.04716 -6.51e-4,3.89e-4 8.46e-4,-4.83e-4 2.1e-4,-1.05e-4 -0.05147,0.0297 -0.106977,0.05284 -0.165377,0.06851 -0.175528,0.04701 -0.362513,0.02243 -0.519913,-0.06845 -0.105042,-0.06067 -0.223386,-0.09178 -0.342645,-0.09178 -2.45e-4,0 3.5e-4,0 1.06e-4,0 -0.121362,0 -0.239389,0.0322 -0.342645,0.09182 -6.51e-4,3.89e-4 8.46e-4,-4.83e-4 1.39e-4,-1.04e-4 -0.05147,0.02973 -0.106977,0.05288 -0.165328,0.06849 -0.175552,0.04706 -0.362562,0.02248 -0.519938,-0.0684 -0.105069,-0.06067 -0.223386,-0.09182 -0.342645,-0.09182 -2.8e-4,0 3.15e-4,0 7.1e-5,0 -0.121335,0 -0.239363,0.0322 -0.342621,0.09187 -6.75e-4,3.84e-4 8.22e-4,-4.83e-4 1.4e-4,-1.05e-4 -0.05145,0.0297 -0.10695,0.05284 -0.165352,0.06849 -0.175529,0.04701 -0.362537,0.02243 -0.519913,-0.06845 -0.03193,-0.01841 -0.06509,-0.03413 -0.09912,-0.04706 -2.4e-5,0 0,-3.4e-5 0,0"
   id="path25"
   style="fill:#ffffff" /><path
   d="m 19.086753,31.731214 c -0.07984,0.102293 -0.166272,0.200207 -0.259039,0.292926 -0.346608,0.346608 -0.764956,0.604922 -1.220188,0.760532 l -2.4e-5,0 c -0.455233,-0.15561 -0.873605,-0.413875 -1.220213,-0.760532 -0.09274,-0.09273 -0.179178,-0.190635 -0.259014,-0.292926 0,0 -2.4e-5,0 0,0 0.09449,0.0152 0.192036,0.01054 0.286254,-0.01463 0.05839,-0.01566 0.113889,-0.03879 0.165352,-0.06849 6.75e-4,-3.84e-4 -8.22e-4,4.83e-4 -1.4e-4,1.05e-4 0.103254,-0.05967 0.221283,-0.09183 0.34262,-0.09183 2.46e-4,0 -3.14e-4,0 -7e-5,0 0.119253,-3.5e-5 0.237575,0.0311 0.342645,0.09178 0.157376,0.09088 0.344386,0.115463 0.519913,0.06845 0.05839,-0.01566 0.113916,-0.03879 0.165378,-0.06851 6.51e-4,-3.85e-4 -8.48e-4,4.84e-4 -1.41e-4,1.06e-4 0.103241,-0.05967 0.221259,-0.09182 0.342596,-0.09182 2.45e-4,0 -2.79e-4,0 -3.5e-5,0 0.119253,-3.6e-5 0.237551,0.0311 0.342645,0.09178 0.13705,0.07916 0.296648,0.108018 0.45151,0.08305 3.6e-5,0 0,0 -3.3e-5,3.5e-5"
   id="path27"
   style="fill:#ffffff" /></svg>